<svg xmlns="http://www.w3.org/2000/svg" xmlns:xlink="http://www.w3.org/1999/xlink" width="500" zoomAndPan="magnify" viewBox="0 0 375 374.999991" height="500" preserveAspectRatio="xMidYMid meet" version="1.0"><defs><g/></defs><rect x="-37.5" width="450" fill="#ffffff" y="-37.499999" height="449.999989" fill-opacity="1"/><rect x="-37.5" width="450" fill="#ffffff" y="-37.499999" height="449.999989" fill-opacity="1"/><rect x="-37.5" width="450" fill="#ffffff" y="-37.499999" height="449.999989" fill-opacity="1"/><g fill="#000000" fill-opacity="1"><g transform="translate(57.015227, 255.21005)"><g><path d="M 66.648438 -39.113281 L 66.648438 -38.800781 L 66.335938 -34.730469 C 65.710938 -29.726562 64.144531 -25.65625 61.328125 -22.84375 C 58.511719 -19.714844 54.757812 -18.460938 50.066406 -18.460938 C 45.371094 -18.460938 41.617188 -20.027344 38.488281 -23.15625 C 35.359375 -26.285156 33.792969 -30.039062 33.792969 -34.730469 L 33.792969 -66.960938 L 84.484375 -66.960938 L 84.484375 -102.632812 C 84.484375 -107.324219 83.546875 -111.707031 81.667969 -116.085938 C 79.789062 -120.15625 77.601562 -123.910156 74.472656 -127.039062 C 71.34375 -130.167969 67.585938 -132.359375 63.519531 -134.234375 C 59.140625 -136.113281 54.757812 -137.050781 50.066406 -137.050781 C 45.058594 -137.050781 40.675781 -136.113281 36.609375 -134.234375 C 32.230469 -132.359375 28.789062 -130.167969 25.65625 -127.039062 C 22.527344 -123.910156 20.027344 -120.15625 18.148438 -116.085938 C 16.269531 -111.707031 15.644531 -107.324219 15.644531 -102.632812 L 15.644531 -34.730469 C 15.644531 -29.726562 16.269531 -25.34375 18.148438 -21.277344 C 20.027344 -16.898438 22.527344 -13.453125 25.65625 -10.324219 C 28.789062 -7.195312 32.230469 -4.695312 36.609375 -2.816406 C 40.675781 -0.9375 45.058594 -0.3125 50.066406 -0.3125 C 59.453125 -0.3125 67.273438 -3.128906 73.84375 -9.386719 C 80.417969 -15.644531 83.859375 -24.09375 84.484375 -34.730469 L 84.796875 -39.113281 Z M 34.105469 -85.109375 L 34.105469 -102.632812 C 34.105469 -107.011719 35.671875 -111.082031 38.800781 -114.210938 C 41.929688 -117.339844 45.683594 -118.902344 50.378906 -118.902344 C 54.757812 -118.902344 58.824219 -117.339844 61.953125 -114.210938 C 65.082031 -111.082031 66.648438 -107.011719 66.648438 -102.632812 L 66.648438 -85.109375 Z M 34.105469 -85.109375 "/></g></g></g><g fill="#000000" fill-opacity="1"><g transform="translate(157.457049, 255.21005)"><g><path d="M 43.179688 -169.59375 C 44.121094 -172.097656 44.121094 -174.601562 43.179688 -177.101562 C 41.929688 -179.605469 40.363281 -181.484375 37.859375 -182.734375 C 35.359375 -183.675781 32.542969 -183.675781 30.039062 -182.734375 C 27.535156 -181.484375 25.65625 -179.917969 24.71875 -177.417969 C 23.46875 -174.914062 23.46875 -172.097656 24.71875 -169.59375 C 25.65625 -167.089844 27.535156 -165.214844 30.039062 -164.273438 C 32.542969 -163.023438 35.046875 -163.023438 37.546875 -164.273438 C 40.050781 -165.214844 41.929688 -167.089844 43.179688 -169.59375 Z M 24.40625 -136.738281 L 24.71875 7.507812 C 24.71875 12.203125 23.15625 15.957031 20.027344 19.085938 C 16.898438 22.214844 12.828125 23.78125 8.449219 23.78125 C 5.007812 23.78125 1.878906 23.15625 -0.625 21.277344 C -3.441406 19.398438 -5.320312 17.210938 -6.570312 14.082031 L -7.824219 11.578125 L -26.597656 11.578125 L -25.03125 16.898438 C -23.15625 24.40625 -19.085938 30.664062 -12.828125 35.359375 C -6.570312 40.050781 0.3125 42.242188 8.136719 42.242188 C 12.828125 42.242188 17.210938 41.617188 21.589844 39.738281 C 25.65625 37.859375 29.414062 35.359375 32.542969 32.230469 C 35.671875 29.101562 37.859375 25.65625 39.738281 21.277344 C 41.617188 17.210938 42.554688 12.828125 42.554688 7.824219 L 42.554688 -136.738281 Z M 24.40625 -136.738281 "/></g></g></g><g fill="#000000" fill-opacity="1"><g transform="translate(217.221526, 255.21005)"><g><path d="M 15.644531 0 L 33.792969 0 L 33.792969 -179.917969 L 15.644531 -179.917969 Z M 15.644531 0 "/></g></g></g><g fill="#000000" fill-opacity="1"><g transform="translate(266.660197, 255.21005)"><g><path d="M 25.65625 -19.714844 C 22.527344 -19.714844 20.339844 -18.773438 18.460938 -16.898438 C 16.582031 -15.019531 15.644531 -12.515625 15.644531 -9.699219 C 15.644531 -6.570312 16.582031 -4.378906 18.460938 -2.503906 C 20.339844 -0.625 22.527344 0.3125 25.65625 0.3125 C 28.472656 0.3125 30.976562 -0.625 32.855469 -2.503906 C 34.730469 -4.378906 35.671875 -6.570312 35.671875 -9.699219 C 35.671875 -12.515625 34.730469 -15.019531 32.855469 -16.898438 C 30.976562 -18.773438 28.472656 -19.714844 25.65625 -19.714844 Z M 25.65625 -19.714844 "/></g></g></g></svg>