<svg xmlns="http://www.w3.org/2000/svg" xmlns:xlink="http://www.w3.org/1999/xlink" width="240" zoomAndPan="magnify" viewBox="0 0 180 48" height="64" preserveAspectRatio="xMidYMid meet" version="1.0"><defs><g/></defs><g fill="#000000" fill-opacity="1"><g transform="translate(5.751275, 35.265307)"><g><path d="M 11.902344 -6.984375 L 11.902344 -6.929688 L 11.847656 -6.203125 C 11.734375 -5.308594 11.457031 -4.582031 10.953125 -4.078125 C 10.449219 -3.519531 9.777344 -3.296875 8.941406 -3.296875 C 8.101562 -3.296875 7.433594 -3.578125 6.875 -4.136719 C 6.316406 -4.695312 6.035156 -5.363281 6.035156 -6.203125 L 6.035156 -11.957031 L 15.085938 -11.957031 L 15.085938 -18.328125 C 15.085938 -19.167969 14.921875 -19.949219 14.585938 -20.730469 C 14.25 -21.457031 13.859375 -22.128906 13.300781 -22.6875 C 12.742188 -23.246094 12.070312 -23.636719 11.34375 -23.972656 C 10.5625 -24.308594 9.777344 -24.476562 8.941406 -24.476562 C 8.046875 -24.476562 7.265625 -24.308594 6.539062 -23.972656 C 5.753906 -23.636719 5.140625 -23.246094 4.582031 -22.6875 C 4.023438 -22.128906 3.578125 -21.457031 3.242188 -20.730469 C 2.90625 -19.949219 2.792969 -19.167969 2.792969 -18.328125 L 2.792969 -6.203125 C 2.792969 -5.308594 2.90625 -4.527344 3.242188 -3.800781 C 3.578125 -3.015625 4.023438 -2.402344 4.582031 -1.84375 C 5.140625 -1.285156 5.753906 -0.839844 6.539062 -0.503906 C 7.265625 -0.167969 8.046875 -0.0546875 8.941406 -0.0546875 C 10.617188 -0.0546875 12.015625 -0.558594 13.1875 -1.675781 C 14.363281 -2.792969 14.976562 -4.304688 15.085938 -6.203125 L 15.144531 -6.984375 Z M 6.089844 -15.199219 L 6.089844 -18.328125 C 6.089844 -19.109375 6.371094 -19.835938 6.929688 -20.398438 C 7.488281 -20.957031 8.160156 -21.234375 8.996094 -21.234375 C 9.777344 -21.234375 10.503906 -20.957031 11.0625 -20.398438 C 11.625 -19.835938 11.902344 -19.109375 11.902344 -18.328125 L 11.902344 -15.199219 Z M 6.089844 -15.199219 "/></g></g></g><g fill="#000000" fill-opacity="1"><g transform="translate(23.685939, 35.265307)"><g><path d="M 15.3125 -19.167969 L 15.03125 -20.003906 C 14.695312 -21.457031 14.027344 -22.632812 12.910156 -23.414062 C 11.957031 -24.085938 10.953125 -24.476562 9.835938 -24.476562 C 8.996094 -24.476562 8.269531 -24.363281 7.65625 -24.195312 C 7.039062 -23.972656 6.539062 -23.75 6.148438 -23.527344 L 6.148438 -24.476562 L 2.90625 -24.476562 L 2.90625 0 L 6.148438 0 L 6.148438 -18.777344 C 6.148438 -19 6.203125 -19.277344 6.425781 -19.613281 C 6.59375 -19.894531 6.816406 -20.171875 7.152344 -20.398438 C 7.433594 -20.621094 7.765625 -20.84375 8.101562 -21.011719 C 8.4375 -21.121094 8.828125 -21.234375 9.164062 -21.234375 C 10.171875 -21.234375 10.898438 -21.066406 11.230469 -20.789062 C 11.566406 -20.453125 11.734375 -20.117188 11.847656 -19.78125 L 12.015625 -19.167969 Z M 15.3125 -19.167969 "/></g></g></g><g fill="#000000" fill-opacity="1"><g transform="translate(41.676477, 35.265307)"><g><path d="M 4.863281 -29.167969 C 5.308594 -29.226562 5.699219 -29.449219 5.980469 -29.839844 C 6.257812 -30.230469 6.371094 -30.679688 6.316406 -31.179688 C 6.203125 -31.628906 5.980469 -32.019531 5.589844 -32.300781 C 5.195312 -32.578125 4.75 -32.691406 4.304688 -32.632812 C 3.800781 -32.523438 3.410156 -32.300781 3.128906 -31.90625 C 2.851562 -31.515625 2.738281 -31.070312 2.851562 -30.621094 C 2.90625 -30.121094 3.128906 -29.730469 3.519531 -29.449219 C 3.910156 -29.167969 4.359375 -29.058594 4.863281 -29.167969 Z M 2.960938 0 L 6.203125 0 L 6.203125 -24.476562 L 2.960938 -24.476562 Z M 2.960938 0 "/></g></g></g><g fill="#000000" fill-opacity="1"><g transform="translate(50.839355, 35.265307)"><g><path d="M 11.902344 -6.984375 L 11.902344 -6.929688 L 11.847656 -6.203125 C 11.734375 -5.308594 11.457031 -4.582031 10.953125 -4.078125 C 10.449219 -3.519531 9.777344 -3.296875 8.941406 -3.296875 C 8.101562 -3.296875 7.433594 -3.578125 6.875 -4.136719 C 6.316406 -4.695312 6.035156 -5.363281 6.035156 -6.203125 L 6.035156 -18.328125 C 6.035156 -19.109375 6.316406 -19.835938 6.875 -20.398438 C 7.433594 -20.957031 8.101562 -21.234375 8.941406 -21.234375 C 9.722656 -21.234375 10.449219 -20.957031 11.007812 -20.398438 C 11.566406 -19.835938 11.847656 -19.109375 11.847656 -18.328125 L 11.847656 -17.546875 L 15.085938 -17.546875 L 15.085938 -18.328125 C 15.085938 -19.167969 14.921875 -19.949219 14.585938 -20.730469 C 14.25 -21.457031 13.859375 -22.128906 13.300781 -22.6875 C 12.742188 -23.246094 12.070312 -23.636719 11.34375 -23.972656 C 10.5625 -24.308594 9.777344 -24.476562 8.941406 -24.476562 C 8.046875 -24.476562 7.265625 -24.308594 6.539062 -23.972656 C 5.753906 -23.636719 5.140625 -23.246094 4.582031 -22.6875 C 4.023438 -22.128906 3.578125 -21.457031 3.242188 -20.730469 C 2.90625 -19.949219 2.792969 -19.167969 2.792969 -18.328125 L 2.792969 -6.203125 C 2.792969 -5.308594 2.90625 -4.527344 3.242188 -3.800781 C 3.578125 -3.015625 4.023438 -2.402344 4.582031 -1.84375 C 5.140625 -1.285156 5.753906 -0.839844 6.539062 -0.503906 C 7.265625 -0.167969 8.046875 -0.0546875 8.941406 -0.0546875 C 10.617188 -0.0546875 12.015625 -0.558594 13.1875 -1.675781 C 14.363281 -2.792969 14.976562 -4.304688 15.085938 -6.203125 L 15.144531 -6.984375 Z M 11.902344 -6.984375 "/></g></g></g><g fill="#576e84" fill-opacity="1"><g transform="translate(68.762752, 35.265307)"><g><path d="M 2.792969 0 L 6.035156 0 L 6.035156 -32.132812 L 2.792969 -32.132812 Z M 2.792969 0 "/></g></g></g><g fill="#576e84" fill-opacity="1"><g transform="translate(77.590401, 35.265307)"><g><path d="M 9.277344 -24.585938 L 9.332031 -24.476562 C 8.101562 -24.476562 7.152344 -24.195312 6.425781 -23.75 C 5.699219 -23.246094 5.140625 -22.742188 4.75 -22.242188 C 4.304688 -21.683594 3.96875 -21.011719 3.742188 -20.339844 C 3.464844 -19.613281 3.351562 -18.945312 3.351562 -18.328125 L 3.351562 -17.546875 L 6.648438 -17.546875 L 6.648438 -18.328125 C 6.648438 -19.335938 6.929688 -20.0625 7.542969 -20.5625 C 8.160156 -21.011719 8.71875 -21.289062 9.277344 -21.289062 C 10.003906 -21.289062 10.617188 -20.957031 11.0625 -20.285156 C 11.625 -19.503906 11.902344 -18.328125 11.902344 -16.875 L 11.902344 -14.585938 C 11.457031 -14.417969 10.898438 -14.195312 10.113281 -13.914062 C 9.332031 -13.636719 8.550781 -13.242188 7.710938 -12.742188 C 4.359375 -10.730469 2.738281 -8.214844 2.738281 -5.253906 C 2.738281 -3.855469 3.183594 -2.683594 4.136719 -1.675781 C 5.140625 -0.613281 6.480469 -0.113281 8.101562 -0.113281 C 8.828125 -0.113281 9.554688 -0.222656 10.226562 -0.558594 C 10.898438 -0.839844 11.457031 -1.117188 12.015625 -1.453125 L 12.015625 -0.113281 L 15.253906 -0.113281 L 15.253906 -16.933594 C 15.253906 -19.277344 14.695312 -21.121094 13.636719 -22.519531 C 12.515625 -23.859375 11.0625 -24.585938 9.277344 -24.585938 Z M 12.015625 -11.230469 L 11.957031 -5.921875 C 11.734375 -5.699219 11.511719 -5.421875 11.289062 -5.140625 C 11.007812 -4.863281 10.671875 -4.582031 10.339844 -4.359375 C 10.003906 -4.078125 9.613281 -3.855469 9.21875 -3.6875 C 8.828125 -3.464844 8.4375 -3.410156 8.101562 -3.410156 C 7.320312 -3.410156 6.816406 -3.578125 6.480469 -4.023438 C 6.148438 -4.414062 6.035156 -4.804688 6.035156 -5.140625 C 6.035156 -5.980469 6.257812 -6.761719 6.707031 -7.433594 C 7.152344 -8.101562 7.65625 -8.660156 8.328125 -9.164062 C 8.941406 -9.667969 9.613281 -10.113281 10.28125 -10.449219 C 10.953125 -10.785156 11.511719 -11.007812 12.015625 -11.230469 Z M 12.015625 -11.230469 "/></g></g></g><g fill="#576e84" fill-opacity="1"><g transform="translate(95.692674, 35.265307)"><g><path d="M 15.085938 -24.417969 L 11.902344 -24.476562 L 11.902344 -5.699219 C 11.902344 -5.421875 11.789062 -5.140625 11.625 -4.863281 C 11.398438 -4.527344 11.175781 -4.246094 10.898438 -4.023438 C 10.5625 -3.800781 10.226562 -3.578125 9.890625 -3.464844 C 9.554688 -3.296875 9.21875 -3.242188 8.886719 -3.242188 C 7.65625 -3.242188 6.929688 -3.410156 6.59375 -3.855469 C 6.257812 -4.304688 6.089844 -4.863281 6.089844 -5.644531 L 6.089844 -24.417969 L 2.851562 -24.417969 L 2.851562 -5.699219 C 2.851562 -4.46875 3.015625 -3.519531 3.464844 -2.851562 C 3.855469 -2.179688 4.246094 -1.621094 4.695312 -1.285156 C 5.699219 -0.390625 6.816406 0.0546875 8.160156 0.0546875 C 8.941406 0.0546875 9.667969 0 10.28125 -0.222656 C 10.898438 -0.390625 11.398438 -0.613281 11.847656 -0.894531 L 11.847656 0.0546875 L 15.085938 0.0546875 Z M 15.085938 -24.417969 "/></g></g></g><g fill="#576e84" fill-opacity="1"><g transform="translate(113.627339, 35.265307)"><g><path d="M 15.3125 -19.167969 L 15.03125 -20.003906 C 14.695312 -21.457031 14.027344 -22.632812 12.910156 -23.414062 C 11.957031 -24.085938 10.953125 -24.476562 9.835938 -24.476562 C 8.996094 -24.476562 8.269531 -24.363281 7.65625 -24.195312 C 7.039062 -23.972656 6.539062 -23.75 6.148438 -23.527344 L 6.148438 -24.476562 L 2.90625 -24.476562 L 2.90625 0 L 6.148438 0 L 6.148438 -18.777344 C 6.148438 -19 6.203125 -19.277344 6.425781 -19.613281 C 6.59375 -19.894531 6.816406 -20.171875 7.152344 -20.398438 C 7.433594 -20.621094 7.765625 -20.84375 8.101562 -21.011719 C 8.4375 -21.121094 8.828125 -21.234375 9.164062 -21.234375 C 10.171875 -21.234375 10.898438 -21.066406 11.230469 -20.789062 C 11.566406 -20.453125 11.734375 -20.117188 11.847656 -19.78125 L 12.015625 -19.167969 Z M 15.3125 -19.167969 "/></g></g></g><g fill="#576e84" fill-opacity="1"><g transform="translate(131.617877, 35.265307)"><g><path d="M 4.863281 -29.167969 C 5.308594 -29.226562 5.699219 -29.449219 5.980469 -29.839844 C 6.257812 -30.230469 6.371094 -30.679688 6.316406 -31.179688 C 6.203125 -31.628906 5.980469 -32.019531 5.589844 -32.300781 C 5.195312 -32.578125 4.75 -32.691406 4.304688 -32.632812 C 3.800781 -32.523438 3.410156 -32.300781 3.128906 -31.90625 C 2.851562 -31.515625 2.738281 -31.070312 2.851562 -30.621094 C 2.90625 -30.121094 3.128906 -29.730469 3.519531 -29.449219 C 3.910156 -29.167969 4.359375 -29.058594 4.863281 -29.167969 Z M 2.960938 0 L 6.203125 0 L 6.203125 -24.476562 L 2.960938 -24.476562 Z M 2.960938 0 "/></g></g></g><g fill="#576e84" fill-opacity="1"><g transform="translate(140.780754, 35.265307)"><g><path d="M 12.742188 -3.242188 L 9.945312 -3.242188 C 9.445312 -3.242188 9.050781 -3.410156 8.71875 -3.742188 C 8.382812 -4.078125 8.214844 -4.46875 8.214844 -4.972656 L 8.214844 -21.121094 L 12.351562 -21.121094 L 12.351562 -24.363281 L 8.214844 -24.363281 L 8.214844 -30.34375 L 4.972656 -30.34375 L 4.972656 -24.363281 L 2.792969 -24.363281 L 2.792969 -21.121094 L 4.972656 -21.121094 L 4.972656 -4.972656 C 4.972656 -3.578125 5.421875 -2.402344 6.425781 -1.453125 C 7.375 -0.445312 8.550781 0 9.945312 0 L 12.742188 0 Z M 12.742188 -3.242188 "/></g></g></g><g fill="#576e84" fill-opacity="1"><g transform="translate(156.312955, 35.265307)"><g><path d="M 9.835938 -13.410156 L 9.890625 -13.578125 C 9.722656 -13.636719 9.554688 -13.691406 9.445312 -13.800781 C 9.332031 -13.914062 9.21875 -13.96875 9.109375 -14.082031 C 8.101562 -14.753906 7.375 -15.3125 6.816406 -15.871094 C 6.257812 -16.429688 6.035156 -17.097656 6.035156 -17.882812 C 6.035156 -18.832031 6.257812 -19.613281 6.816406 -20.230469 C 7.320312 -20.789062 7.992188 -21.121094 8.886719 -21.121094 C 9.667969 -21.121094 10.394531 -20.84375 10.953125 -20.285156 C 11.511719 -19.726562 11.789062 -19 11.789062 -18.21875 L 11.789062 -17.433594 L 15.03125 -17.433594 L 15.03125 -18.21875 C 15.03125 -19.054688 14.863281 -19.835938 14.527344 -20.621094 C 14.195312 -21.347656 13.800781 -22.015625 13.242188 -22.574219 C 12.683594 -23.132812 12.015625 -23.527344 11.289062 -23.859375 C 10.503906 -24.195312 9.722656 -24.363281 8.886719 -24.363281 C 7.097656 -24.363281 5.644531 -23.75 4.527344 -22.632812 C 3.296875 -21.402344 2.738281 -19.835938 2.738281 -17.824219 C 2.738281 -16.261719 3.183594 -15.03125 4.078125 -14.027344 C 4.972656 -13.019531 6.257812 -11.902344 7.933594 -10.785156 L 8.605469 -10.28125 C 9.554688 -9.554688 10.339844 -8.941406 10.898438 -8.382812 C 11.457031 -7.824219 11.734375 -7.097656 11.734375 -6.316406 C 11.734375 -5.308594 11.457031 -4.527344 10.953125 -3.96875 C 10.394531 -3.351562 9.722656 -3.074219 8.886719 -3.074219 C 8.046875 -3.074219 7.375 -3.351562 6.816406 -3.910156 C 6.257812 -4.46875 5.980469 -5.140625 5.980469 -5.980469 L 5.980469 -6.761719 L 2.738281 -6.761719 L 2.738281 -5.980469 C 2.738281 -5.085938 2.851562 -4.304688 3.183594 -3.578125 C 3.519531 -2.792969 3.96875 -2.179688 4.527344 -1.621094 C 5.085938 -1.0625 5.699219 -0.613281 6.480469 -0.28125 C 7.207031 0.0546875 7.992188 0.167969 8.886719 0.167969 C 10.617188 0.167969 12.070312 -0.390625 13.242188 -1.566406 C 14.417969 -2.738281 15.03125 -4.359375 15.03125 -6.371094 C 15.03125 -7.152344 14.863281 -7.878906 14.640625 -8.550781 C 14.363281 -9.164062 13.96875 -9.722656 13.523438 -10.28125 C 13.019531 -10.839844 12.460938 -11.34375 11.847656 -11.847656 C 11.175781 -12.351562 10.503906 -12.851562 9.835938 -13.410156 Z M 9.835938 -13.410156 "/></g></g></g></svg>